<svg id="atm_money_money_atm_payment_cash_banking_finance_business_credit_dollar_machine" viewBox="0 0 32 32" xmlns="http://www.w3.org/2000/svg"><path d="m30 5v4c0 1.65-1.35 3-3 3v-2.77c2.06-1.85.72-5.23-2-5.23h-18c-2.72 0-4.06 3.38-2 5.23v2.77c-1.65 0-3-1.35-3-3v-4c0-1.65 1.35-3 3-3h22c1.65 0 3 1.35 3 3z"/><path d="m25 6h-18c-1.32 0-1.32 2 0 2v19c0 1.65 1.35 3 3 3h12c1.65 0 3-1.35 3-3v-19c1.32 0 1.32-2 0-2zm-5 11h-.2c-.16.4-.42.78-.78 1.12-.95.92-2.34-.52-1.39-1.44.31-.3.43-.61.33-.86-.08-.19-.26-.31-.46-.31-.27 0-.5.23-.5.5 0 1.38-1.12 2.5-2.5 2.5-1 0-1.89-.59-2.29-1.5h-.21c-1.32 0-1.32-2 0-2h.2c.16-.4.42-.78.78-1.12.96-.92 2.34.53 1.38 1.45-.31.3-.43.6-.33.86.06.16.23.31.46.31.27 0 .5-.23.5-.5 0-1.38 1.12-2.5 2.5-2.5 1 0 1.89.59 2.29 1.5h.21c1.32 0 1.32 2 0 2z"/></svg>