<svg id="Layer_1" enable-background="new 0 0 512 512" height="512" viewBox="0 0 512 512" width="512" xmlns="http://www.w3.org/2000/svg"><path clip-rule="evenodd" d="m69.324 324.343 69.107 122.106c3.59 6.344 1.337 14.472-5.007 18.062l-25.257 14.294c-6.344 3.59-14.472 1.337-18.062-5.007l-69.106-122.105c-3.59-6.344-1.337-14.472 5.007-18.062l25.257-14.294c6.343-3.591 14.471-1.337 18.061 5.006zm217.206-292.858c61.297 0 110.987 49.691 110.987 110.988s-49.691 110.987-110.987 110.987c-61.297 0-110.988-49.691-110.988-110.987 0-61.297 49.691-110.988 110.988-110.988zm44.312 73.116c-2.757-8.741-8.903-16.225-17.156-21.407-4.496-2.823-9.626-4.971-15.156-6.257v-5.815c0-6.627-5.373-12-12-12s-12 5.373-12 12v5.803c-7.438 1.717-14.137 4.986-19.537 9.355-8.891 7.194-14.39 17.343-14.39 28.74s5.499 21.546 14.39 28.74c8.18 6.618 19.338 10.712 31.537 10.712 6.539 0 12.344 2.052 16.443 5.369 3.388 2.741 5.484 6.319 5.484 10.084 0 3.764-2.096 7.342-5.484 10.084-4.099 3.316-9.904 5.368-16.443 5.368-5.088 0-9.731-1.238-13.484-3.349-3.476-1.955-6.106-4.575-7.456-7.516-2.744-6.006-9.838-8.65-15.844-5.906s-8.65 9.838-5.906 15.844c3.513 7.657 9.675 14.09 17.487 18.485 3.999 2.249 8.449 3.983 13.202 5.083v5.806c0 6.627 5.373 12 12 12s12-5.373 12-12v-5.803c7.439-1.717 14.137-4.986 19.537-9.355 8.891-7.194 14.39-17.343 14.39-28.74s-5.499-21.546-14.39-28.74c-8.18-6.619-19.339-10.713-31.537-10.713-6.539 0-12.344-2.052-16.443-5.368-3.388-2.741-5.484-6.32-5.484-10.084s2.096-7.342 5.484-10.084c4.099-3.317 9.904-5.369 16.443-5.369 5.547 0 10.537 1.447 14.406 3.876 3.482 2.186 6.005 5.12 7.031 8.375 1.993 6.317 8.73 9.822 15.047 7.828 6.318-1.992 9.823-8.729 7.829-15.046zm-232.76 221.829 52.415 92.614 4.839-2.794 118.49 31.749c17.044 4.568 33.484 2.41 48.508-6.84l159.188-94.775c23.265-14.324 12.987-77.019-56.986-36.266l-85.846 46.616c-12.572 7.321-25.764 9.287-40.129 6.99-11.974-1.916-40.618-9.927-69.244-17.597-5.195-1.392-8.277-6.731-6.885-11.926 1.392-5.194 6.731-8.277 11.925-6.885l80.867 21.667c.798-1.62 1.454-3.375 1.959-5.257 3.621-13.513-4.677-26.841-17.987-31.157-35.859-6.467-71.022-21.462-92.555-28.445-19.314-6.266-37.181.953-54.753 11.133z" fill-rule="evenodd"/></svg>