<svg version="1.2" xmlns="http://www.w3.org/2000/svg" viewBox="0 0 1024 1024" width="1024" height="1024">
	<title>phone-svg</title>
	<style>
		.s0 { opacity: 0;fill: #cfd8dc } 
		.s1 { fill: #01d676 } 
	</style>
	<g id="Layer">
		<path id="Layer" class="s0" d="m192 131.3c0-60.7 49.2-110 110-110h420c60.7 0 110 49.3 110 110v761.4c0 60.7-49.3 110-110 110h-420c-60.8 0-110-49.3-110-110z"/>
		<path id="Layer" class="s1" d="m661.3 32c-5.2 0-9.3 4.7-9.3 10.7 0 40.9-29.5 74.6-65.3 74.6h-149.4c-35.8 0-65.3-33.7-65.3-74.6 0-6-4.1-10.7-9.3-10.7z"/>
		<path id="Layer" fill-rule="evenodd" class="s1" d="m738.3 1024h-452.6c-15.1 0-30.1-3-44-8.8-14-5.8-26.6-14.2-37.3-24.9-10.7-10.7-19.2-23.4-24.9-37.3-5.8-13.9-8.8-28.9-8.8-44v-794c0-15.1 3-30.1 8.8-44 5.7-13.9 14.2-26.6 24.9-37.3 10.7-10.7 23.3-19.1 37.3-24.9 13.9-5.8 28.9-8.8 44-8.8h452.6c15.1 0 30.1 3 44 8.8 14 5.8 26.6 14.2 37.3 24.9 10.7 10.7 19.2 23.4 24.9 37.3 5.8 13.9 8.8 28.9 8.8 44v794c0 15.1-3 30.1-8.8 44-5.7 13.9-14.2 26.6-24.9 37.3-10.7 10.7-23.3 19.1-37.3 24.9-13.9 5.8-28.9 8.8-44 8.8zm-503.6-115c0 28.2 22.8 51 51 51h452.6c28.2 0 51-22.8 51-51v-794c0-28.2-22.8-51-51-51h-452.6c-28.2 0-51 22.8-51 51z"/>
		<path id="Layer" class="s1" d="m597.3 149.3h-170.6c-41.2 0-74.7-33.5-74.7-74.6 0-1.4-0.3-2.8-0.8-4.1-0.5-1.3-1.3-2.5-2.3-3.5-1-1-2.2-1.8-3.5-2.3-1.3-0.5-2.7-0.8-4.1-0.8h-42.6c-8.5 0-16.7-3.4-22.7-9.4-6-6-9.3-14.1-9.3-22.6 0-8.5 3.3-16.6 9.3-22.6 6-6 14.2-9.4 22.7-9.4h42.6c41.2 0 74.7 33.5 74.7 74.7 0 5.9 4.8 10.6 10.7 10.6h170.6c1.4 0 2.8-0.2 4.1-0.8 1.3-0.5 2.5-1.3 3.5-2.3 1-1 1.8-2.2 2.3-3.5 0.5-1.2 0.8-2.6 0.8-4 0-41.2 33.5-74.7 74.7-74.7h42.6c8.5 0 16.7 3.4 22.7 9.4 6 6 9.3 14.1 9.3 22.6 0 8.5-3.3 16.6-9.3 22.6-6 6-14.2 9.4-22.7 9.4h-42.6c-1.4 0-2.8 0.3-4.1 0.8-1.3 0.5-2.5 1.3-3.5 2.3-1 1-1.8 2.2-2.3 3.5-0.5 1.3-0.8 2.7-0.8 4.1 0 41.1-33.5 74.6-74.7 74.6zm-69.3 522.7h-69.3c-8.5 0-16.7-3.4-22.7-9.4-6-6-9.3-14.1-9.3-22.6 0-8.5 3.3-16.6 9.3-22.6 6-6 14.2-9.4 22.7-9.4h69.3c8.7 0 16-9.8 16-21.3 0-11.6-7.3-21.4-16-21.4h-32c-44.1 0-80-38.2-80-85.3 0-47.1 35.9-85.3 80-85.3h69.3c8.5 0 16.7 3.3 22.7 9.3 6 6 9.3 14.2 9.3 22.7 0 8.5-3.3 16.6-9.3 22.6-6 6-14.2 9.4-22.7 9.4h-69.3c-8.7 0-16 9.7-16 21.3 0 11.6 7.3 21.3 16 21.3h32c44.1 0 80 38.3 80 85.4 0 47-35.9 85.3-80 85.3z"/>
		<path id="Layer" class="s1" d="m512 725.3c-4.2 0-8.4-0.8-12.2-2.4-3.9-1.6-7.5-4-10.4-6.9-3-3-5.4-6.5-7-10.4-1.6-3.9-2.4-8.1-2.4-12.3v-42.6c0-8.5 3.4-16.7 9.4-22.7 6-6 14.1-9.3 22.6-9.3 8.5 0 16.6 3.3 22.6 9.3 6 6 9.4 14.2 9.4 22.7v42.6c0 4.2-0.8 8.4-2.4 12.3-1.6 3.9-4 7.4-7 10.4-2.9 2.9-6.5 5.3-10.4 6.9-3.8 1.6-8 2.4-12.2 2.4zm0-266.6c-4.2 0-8.4-0.9-12.2-2.5-3.9-1.6-7.5-3.9-10.4-6.9-3-3-5.4-6.5-7-10.4-1.6-3.9-2.4-8-2.4-12.2v-53.4c0-8.5 3.4-16.6 9.4-22.6 6-6 14.1-9.4 22.6-9.4 8.5 0 16.6 3.4 22.6 9.4 6 6 9.4 14.1 9.4 22.6v53.4c0 4.2-0.8 8.3-2.4 12.2-1.6 3.9-4 7.4-7 10.4-2.9 3-6.5 5.3-10.4 6.9-3.8 1.6-8 2.5-12.2 2.5z"/>
	</g>
</svg>